HIERARCHY
ROOT Hips
{
	OFFSET	0.00	0.00	0.00
	CHANNELS 6 Xposition Yposition Zposition Zrotation Xrotation Yrotation
	JOINT LeftUpLeg
	{
		OFFSET	 0.126116	-0.014019	-0.065224
		CHANNELS 3 Zrotation Xrotation Yrotation
		JOINT LeftLeg
		{
			OFFSET	 0.000000	 0.000000	 0.569914
			CHANNELS 3 Zrotation Xrotation Yrotation
			JOINT LeftFoot
			{
				OFFSET	 0.000000	 0.000000	 0.544423
				CHANNELS 3 Zrotation Xrotation Yrotation
				JOINT LeftToeBase
				{
					OFFSET	 0.000000	 0.000000	 0.207117
					CHANNELS 3 Zrotation Xrotation Yrotation
					End Site
					{
						OFFSET	 0.000000	 0.000000	 0.207117
					}
				}
			}
		}
	}
	JOINT RightUpLeg
	{
		OFFSET	-0.124023	-0.008373	-0.065224
		CHANNELS 3 Zrotation Xrotation Yrotation
		JOINT RightLeg
		{
			OFFSET	 0.000000	 0.000000	 0.570047
			CHANNELS 3 Zrotation Xrotation Yrotation
			JOINT RightFoot
			{
				OFFSET	 0.000000	 0.000000	 0.544354
				CHANNELS 3 Zrotation Xrotation Yrotation
				JOINT RightToeBase
				{
					OFFSET	 0.000000	 0.000000	 0.207540
					CHANNELS 3 Zrotation Xrotation Yrotation
					End Site
					{
						OFFSET	 0.000000	 0.000000	 0.207540
					}
				}
			}
		}
	}
	JOINT Spine
	{
		OFFSET	 0.000184	-0.007763	 0.117403
		CHANNELS 3 Zrotation Xrotation Yrotation
		JOINT Spine1
		{
			OFFSET	 0.000000	 0.000000	 0.137269
			CHANNELS 3 Zrotation Xrotation Yrotation
			JOINT Spine2
			{
				OFFSET	 0.000000	 0.000000	 0.156879
				CHANNELS 3 Zrotation Xrotation Yrotation
				JOINT LeftShoulder
				{
					OFFSET	 0.080501	-0.002496	 0.160144
					CHANNELS 3 Zrotation Xrotation Yrotation
					JOINT LeftArm
					{
						OFFSET	 0.000000	 0.000000	 0.164363
						CHANNELS 3 Zrotation Xrotation Yrotation
						JOINT LeftForeArm
						{
							OFFSET	 0.000000	 0.000000	 0.364576
							CHANNELS 3 Zrotation Xrotation Yrotation
							JOINT LeftHand
							{
								OFFSET	 0.000000	 0.000000	 0.360812
								CHANNELS 3 Zrotation Xrotation Yrotation
								JOINT LeftHandIndex1
								{
									OFFSET	 0.000000	 0.000000	 0.086006
									CHANNELS 3 Zrotation Xrotation Yrotation
									JOINT LeftHandIndex2
									{
										OFFSET	 0.000000	 0.000000	 0.047236
										CHANNELS 3 Zrotation Xrotation Yrotation
										JOINT LeftHandIndex3
										{
											OFFSET	-0.004284	-0.000551	 0.038166
											CHANNELS 3 Zrotation Xrotation Yrotation
											End Site
											{
												OFFSET	-0.004284	-0.000551	 0.038166
											}
										}
									}
								}
							}
						}
					}
				}
				JOINT Neck
				{
					OFFSET	 0.000000	 0.000000	 0.176489
					CHANNELS 3 Zrotation Xrotation Yrotation
					JOINT Head
					{
						OFFSET	 0.000000	-0.001747	 0.077940
						CHANNELS 3 Zrotation Xrotation Yrotation
						End Site
						{
							OFFSET	 0.000000	-0.001747	 0.077940
						}
					}
				}
				JOINT RightShoulder
				{
					OFFSET	-0.080363	 0.000306	 0.159706
					CHANNELS 3 Zrotation Xrotation Yrotation
					JOINT RightArm
					{
						OFFSET	 0.000000	 0.000000	 0.164196
						CHANNELS 3 Zrotation Xrotation Yrotation
						JOINT RightForeArm
						{
							OFFSET	 0.000000	 0.000000	 0.365611
							CHANNELS 3 Zrotation Xrotation Yrotation
							JOINT RightHand
							{
								OFFSET	 0.000000	 0.000000	 0.360648
								CHANNELS 3 Zrotation Xrotation Yrotation
								JOINT RightHandIndex1
								{
									OFFSET	 0.000000	 0.000000	 0.069977
									CHANNELS 3 Zrotation Xrotation Yrotation
									JOINT RightHandIndex2
									{
										OFFSET	 0.000000	 0.000000	 0.052305
										CHANNELS 3 Zrotation Xrotation Yrotation
										JOINT RightHandIndex3
										{
											OFFSET	 0.009002	-0.000782	 0.042196
											CHANNELS 3 Zrotation Xrotation Yrotation
											End Site
											{
												OFFSET	 0.009002	-0.000782	 0.042196
											}
										}
									}
								}
							}
						}
					}
				}
			}
		}
	}
}
MOTION
Frames:    13
Frame Time: 0.03333334
 0.012791	 0.067293	 1.202433	 4.175242	-1.746383	-3.411214	-4.904064	-13.031580	-170.227600	 0.365824	-38.419780	-0.003298	 45.870240	 79.908520	-49.327690	-2.371173	 31.314840	-0.063141	 2.841077	-28.263710	-175.243100	 10.371560	-53.343650	 8.935719	 14.429680	 71.595490	-10.309600	 2.357925	 33.152890	 0.106782	-0.492779	 8.916164	 1.355386	 0.542104	 2.814687	 1.795010	-4.923748	-2.661284	-2.326303	-93.784160	 58.855110	 175.730100	 22.675730	 43.197300	-29.265820	-0.587739	-1.498434	-12.446760	-0.572995	-17.168770	-6.251424	-4.870874	 19.207470	-2.785044	-3.886081	 21.414490	 2.207384	-4.807970	 5.548929	 0.146770	-0.122530	-5.019468	 0.160386	-7.049378	 2.114465	 2.491441	 89.828470	 61.586400	-179.889700	-20.529810	 52.360250	 10.157830	-1.155205	-2.792498	 14.670270	-4.876634	-3.184606	 0.759317	 6.303571	 25.903570	-0.574587	 1.740633	 45.845290	-6.863562	 0.365524	 24.976890	 3.650541
 0.012184	 0.059721	 1.201577	 5.238393	-1.185510	-3.387715	-5.910124	-13.502720	-170.314600	 1.045683	-38.647530	 0.432791	 45.592830	 80.069730	-49.581580	-2.369356	 31.621470	-0.070074	 0.456975	-29.726770	-175.139600	 11.489430	-52.645500	 9.790014	 35.199470	 79.813500	-32.547610	 2.358913	 33.007660	 0.103407	-1.217056	 8.635003	 1.185387	 0.613068	 2.243942	 1.970020	-5.086875	-2.581388	-2.348797	-93.987250	 58.961130	 175.284600	 23.613740	 42.463640	-29.231360	-1.551332	-1.476900	-14.254100	-0.414159	-17.555550	-7.979632	-4.869212	 19.267440	-2.792566	-3.876881	 21.532210	 2.198035	-4.805858	 5.573765	 0.145315	-0.064364	-5.086436	 0.194934	-7.011065	 2.056888	 2.258466	 89.762880	 61.673650	 179.954100	-19.864440	 52.810630	 8.963658	-1.587567	-2.968157	 14.999220	-4.882158	-2.677786	 0.510190	 6.289132	 24.464910	-0.538838	 1.935087	 44.296670	-7.037265	 0.602081	 23.942630	 3.530030
 0.011528	 0.047501	 1.200553	 6.086280	-0.390488	-3.442730	-6.715722	-13.873780	-170.370700	 1.397335	-38.747130	 0.653855	 45.544190	 80.177310	-49.802380	-2.367820	 31.874700	-0.075824	-1.653467	-31.766720	-174.952000	 12.681960	-51.232640	 10.554510	 86.785610	 82.233760	-85.866130	 2.359186	 32.969230	 0.102499	-1.705475	 8.096814	 1.004506	 0.645231	 1.841180	 2.244383	-5.245523	-2.576124	-2.438281	-94.201980	 58.994280	 174.822300	 23.994320	 41.548330	-29.011140	-1.922005	-1.607432	-16.463390	 0.103110	-18.120530	-8.723093	-4.861188	 19.470140	-2.805428	-3.864402	 21.691230	 2.185358	-4.802779	 5.610057	 0.143193	-0.021103	-5.120554	 0.258542	-7.023681	 2.016371	 2.131144	 89.676740	 61.825500	 179.747300	-19.233840	 53.372680	 7.617054	-2.301507	-3.236519	 15.311050	-5.179895	-2.222612	 0.169885	 6.267303	 22.932000	-0.562112	 2.110744	 42.812740	-7.192817	 0.932727	 22.464680	 3.367514
 0.011296	 0.029601	 1.199368	 6.481464	 0.336336	-3.801317	-7.032238	-13.610040	-170.101900	 1.587822	-38.409390	 0.767416	 46.969620	 80.399580	-51.418060	-2.365431	 32.257780	-0.084564	-2.017663	-33.874230	-174.235400	 13.365610	-48.953830	 10.745050	 105.341200	 79.480850	-106.147600	 2.361479	 32.625160	 0.094542	-1.892465	 7.479775	 1.149154	 0.683074	 1.891849	 2.463245	-5.358518	-2.683187	-2.535941	-94.374880	 58.984780	 174.455100	 23.882430	 40.304630	-29.137770	-2.746816	-1.548091	-18.570050	 0.141652	-18.994180	-8.193569	-4.845588	 19.823840	-2.819788	-3.847847	 21.901250	 2.168540	-4.793367	 5.720914	 0.136690	-0.004446	-5.186301	 0.317205	-7.074248	 1.975644	 2.107479	 89.551650	 61.966690	 179.444100	-18.549540	 53.935910	 6.189888	-3.432775	-3.622250	 15.560010	-5.837172	-1.725331	-0.723180	 6.237114	 21.193680	-0.623129	 2.264805	 41.439910	-7.328073	 1.325573	 20.660190	 3.183793
 0.010783	 0.003481	 1.197705	 6.625568	 0.718411	-4.146438	-7.244782	-12.354320	-169.822700	 1.701337	-37.760920	 0.825943	 48.035810	 80.537870	-52.607050	-2.358748	 33.266350	-0.107854	-0.634596	-35.417640	-173.125600	 12.589520	-45.234250	 9.562048	 125.691100	 73.332700	-127.304600	 2.352699	 33.891420	 0.124092	-2.096523	 6.961313	 1.365554	 0.716043	 2.535042	 2.537088	-5.401560	-2.957567	-2.569439	-94.471020	 58.962440	 174.253800	 22.851720	 38.828070	-29.665390	-3.411175	-1.449649	-20.201210	-0.133442	-19.393210	-7.657368	-4.825765	 20.216870	-2.822678	-3.825122	 22.187660	 2.145452	-4.771143	 5.981911	 0.121299	 0.022955	-5.277565	 0.342657	-7.068197	 1.902806	 2.038698	 89.446850	 62.046560	 179.189000	-17.524560	 54.521390	 4.379770	-4.790075	-4.026882	 15.575190	-6.457955	-1.489267	-2.111993	 6.196414	 19.073940	-0.708399	 2.531464	 38.892930	-7.559315	 1.770833	 18.552690	 2.988466
 0.009600	-0.030348	 1.195293	 6.899118	 0.783543	-4.407863	-7.706267	-10.223940	-169.635100	 1.914925	-36.803830	 0.936034	 46.254910	 80.329250	-50.968700	-2.341784	 35.511920	-0.161246	 0.244340	-36.169100	-172.073900	 12.292210	-39.492280	 8.385718	 119.894400	 71.616470	-122.495500	 2.337788	 35.787040	 0.169631	-2.601097	 6.985333	 1.511845	 0.716093	 2.875244	 2.657602	-5.409499	-3.268975	-2.636961	-94.535950	 58.909170	 174.124500	 21.024990	 37.337420	-30.617740	-3.517993	-1.447680	-20.693360	-0.522022	-20.448760	-7.909235	-4.839852	 20.459480	-2.975696	-3.796703	 22.542860	 2.116587	-4.734779	 6.406742	 0.096016	 0.090048	-5.375452	 0.353843	-6.980465	 1.907545	 1.792014	 89.370670	 61.989950	 179.006900	-16.211420	 55.005930	 1.998548	-6.054380	-4.333633	 15.335860	-6.718888	-1.841907	-3.468081	 6.167635	 16.812780	-0.702856	 2.809782	 35.981160	-7.796213	 2.231319	 16.306070	 2.801610
 0.006532	-0.072725	 1.191171	 7.183816	 0.715498	-4.229883	-8.488876	-7.454222	-169.947200	 2.433741	-35.846500	 1.219027	 37.943980	 78.937740	-42.912220	-2.293405	 40.405470	-0.286548	 0.714371	-35.990690	-171.651200	 10.982810	-31.557550	 6.207642	 90.569950	 74.617690	-93.066960	 2.338293	 35.727350	 0.168168	-3.341395	 6.991252	 1.382596	 0.748818	 3.492492	 2.599558	-5.414320	-3.605089	-2.668858	-94.523780	 59.168210	 174.107300	 18.824560	 35.985190	-32.648490	-3.540564	-1.361979	-19.671220	-1.320493	-22.032820	-8.671719	-4.873407	 20.588120	-3.209076	-3.767880	 22.899730	 2.087322	-4.683652	 6.999888	 0.060220	 0.170635	-5.472536	 0.287501	-6.801425	 1.976310	 1.588557	 89.356290	 61.699600	 178.983000	-14.866520	 55.207950	-0.629042	-7.233750	-4.582685	 15.017680	-7.015145	-2.627416	-4.728201	 6.183254	 14.354640	-0.471439	 2.999357	 33.834670	-7.954584	 2.714759	 13.878140	 2.622899
 0.002445	-0.107563	 1.186077	 7.428877	 0.399722	-3.532999	-8.807465	-4.962224	-170.864200	 2.036433	-35.593680	 0.980165	 28.464030	 76.195140	-32.763150	-2.187944	 47.481980	-0.498099	 1.774777	-35.746640	-171.720600	 7.567247	-26.737710	 3.766702	 51.302360	 74.694380	-50.626560	 2.340414	 35.472860	 0.161965	-3.987612	 7.016890	 0.711388	 0.805854	 4.392661	 2.675146	-5.446298	-3.890030	-2.838642	-94.466620	 59.338070	 174.201400	 17.387170	 35.107770	-34.097610	-3.745470	-1.267171	-19.371700	-1.858796	-22.677520	-8.856928	-4.890345	 20.693150	-3.341265	-3.755947	 23.046430	 2.075209	-4.636385	 7.543669	 0.026894	 0.244400	-5.476866	 0.248661	-6.635386	 2.103043	 1.762691	 89.354150	 61.468490	 178.986300	-13.974240	 55.196770	-2.432985	-7.973789	-4.805740	 15.033640	-7.526938	-3.384422	-5.349760	 6.254206	 12.392880	-0.055738	 3.109910	 32.517510	-8.045674	 3.055382	 12.127700	 2.508194
-0.002773	-0.150396	 1.177621	 8.299699	-0.325637	-2.715122	-8.694124	-1.449798	-172.193000	 0.191382	-35.350520	-0.093348	 18.791090	 69.897220	-20.762500	-1.999731	 55.225990	-0.796737	 3.964588	-36.845740	-170.993100	 6.327089	-24.530190	 2.953971	 15.887360	 66.990400	-12.477880	 2.335498	 36.055640	 0.176217	-5.024318	 7.277590	-0.094166	 0.739453	 5.764133	 2.712990	-5.564501	-4.289705	-3.061975	-94.405500	 59.133220	 174.366300	 16.053200	 33.825610	-35.121010	-4.127089	-1.226907	-20.852020	-2.033065	-22.291080	-8.567087	-4.895903	 20.876090	-3.434753	-3.738400	 23.261150	 2.057397	-4.580022	 8.186412	-0.013141	 0.345671	-5.427446	 0.276529	-6.490367	 2.378606	 2.054813	 89.247360	 61.411610	 178.735900	-13.103350	 55.192030	-4.056539	-8.343745	-4.954203	 15.146450	-7.885749	-4.325213	-5.019093	 6.326290	 10.330240	 0.307171	 3.270515	 30.512800	-8.176188	 3.369349	 10.487310	 2.410983
-0.009238	-0.198206	 1.167421	 9.655339	-1.028010	-1.794385	-9.005677	 2.366747	-173.810900	 0.579950	-34.761890	 0.129560	 10.774940	 58.148560	-11.457810	-1.410898	 66.949920	-1.544451	 4.624012	-39.076970	-170.734700	 7.351996	-24.554310	 3.388860	 5.244242	 55.331890	-1.816117	 2.342345	 35.237220	 0.156244	-6.181208	 7.446894	-0.746523	 0.433823	 7.223481	 2.222294	-5.781847	-4.669848	-3.031875	-94.304920	 59.187320	 174.573200	 15.246190	 32.687380	-36.297260	-4.076505	-1.360252	-22.575210	-1.757185	-21.279120	-8.765713	-4.850125	 21.144630	-3.254968	-3.699723	 23.730140	 2.018139	-4.530571	 8.745187	-0.048520	 0.397017	-5.356150	 0.263890	-6.445761	 2.757242	 2.186420	 89.088820	 61.099780	 178.379100	-12.284820	 54.868680	-5.685147	-7.799040	-5.003090	 15.780680	-7.452108	-5.276288	-3.859105	 6.359407	 8.942848	 0.461201	 3.369413	 29.222390	-8.255404	 3.582741	 9.358761	 2.349685
-0.016617	-0.252060	 1.158039	 10.322930	-1.415298	-0.789462	-5.044237	 6.868044	-177.178500	 1.523310	-32.811980	 0.634388	 4.901385	 42.818740	-1.693653	-1.204064	 69.290670	-1.782112	 3.282051	-40.376490	-172.219900	 6.850598	-23.939770	 3.102605	 3.401094	 46.675870	 0.453228	 2.360156	 32.824100	 0.099141	-6.826818	 7.492488	-1.303651	 0.030874	 8.034981	 1.501206	-5.927776	-4.838578	-2.898045	-94.160900	 59.669780	 174.809400	 14.756540	 32.252990	-37.501720	-3.201749	-1.769240	-23.087140	-1.125749	-20.585670	-9.282285	-4.790693	 21.353580	-2.968283	-3.648813	 24.338460	 1.966487	-4.490433	 9.195224	-0.077414	 0.371522	-5.356072	 0.202020	-6.476201	 3.055296	 2.225665	 89.004360	 60.510690	 178.217300	-11.739090	 54.244560	-7.224877	-6.732871	-4.899710	 16.501240	-6.442593	-6.664638	-2.577106	 6.386947	 8.762164	 0.572629	 3.387990	 28.975190	-8.270175	 3.666234	 8.914386	 2.326772
-0.023681	-0.314672	 1.150246	 9.487049	-1.853787	 0.173452	 1.679267	 12.614970	 178.381000	 0.699993	-28.448810	 0.165434	 5.577343	 31.159240	 0.989071	-2.216029	 45.894440	-0.446682	 2.753181	-39.029110	-174.938400	 5.591596	-22.632580	 2.451981	 3.435365	 43.404330	 1.911954	 2.371446	 31.001600	 0.057580	-6.643657	 7.775600	-1.889735	-0.487179	 7.744502	 0.968532	-5.825883	-4.573381	-2.847553	-94.065570	 59.810870	 174.995800	 14.275410	 32.322930	-37.327250	-2.230366	-2.217433	-23.380280	-0.680428	-20.491020	-9.060859	-4.748714	 21.688150	-2.821400	-3.596818	 24.949520	 1.913745	-4.444013	 9.711805	-0.111022	 0.300380	-5.394694	 0.175896	-6.559424	 3.147145	 2.342416	 89.055070	 60.265340	 178.346700	-11.674030	 53.844820	-8.059579	-5.799714	-4.544538	 16.311100	-5.326661	-8.264099	-1.386611	 6.404084	 9.694356	 0.636643	 3.323251	 29.830120	-8.218547	 3.604072	 9.245387	 2.343773
-0.031502	-0.396639	 1.143058	 7.678656	-2.546500	 1.055515	 7.848437	 17.377730	 173.936800	-1.802933	-27.398390	-0.992342	 8.544098	 31.463430	-1.858944	-2.379028	 29.879460	-0.031144	 3.311903	-36.087980	-178.416600	 4.981586	-23.118140	 2.259892	 3.107583	 45.621830	 3.895341	 2.374331	 30.484940	 0.046012	-6.030115	 8.319198	-2.431211	-1.228539	 6.428429	 0.395017	-5.499937	-3.813159	-2.636334	-94.004650	 59.545370	 175.167000	 14.040630	 32.824280	-35.150010	-1.493362	-2.700285	-24.689970	-0.829854	-21.162840	-8.372780	-4.678694	 22.632790	-2.691314	-3.534775	 25.665330	 1.850836	-4.362049	 10.613490	-0.170838	 0.196889	-5.363677	 0.127101	-6.654013	 3.088394	 2.388519	 89.266940	 60.331110	 178.826100	-12.218300	 53.752850	-8.179117	-4.729268	-3.974212	 15.447440	-4.048457	-10.212540	-0.302966	 6.395139	 11.671500	 0.587393	 3.140223	 32.147540	-8.070473	 3.374780	 10.458710	 2.409374
